<svg width="42" height="38" viewBox="0 0 42 38" fill="none" xmlns="http://www.w3.org/2000/svg">
<rect x="1" y="1" width="40" height="36" rx="10" fill="#FAFAFF" fill-opacity="0.02"/>
<rect x="1" y="1" width="40" height="36" rx="10" stroke="#FAFAFF" stroke-opacity="0.1"/>
<g opacity="0.8">
<path d="M19.0447 12.6079C19.159 12.3551 19.1048 12.058 18.9087 11.8618C18.7125 11.6656 18.4153 11.6114 18.1626 11.7258C15.5127 12.9241 13.6667 15.5916 13.6667 18.6917C13.6667 22.912 17.088 26.3332 21.3083 26.3332C24.4083 26.3332 27.0758 24.4872 28.2742 21.8374C28.3885 21.5846 28.3343 21.2874 28.1382 21.0913C27.942 20.8951 27.6448 20.8409 27.392 20.9552C26.6011 21.313 25.7226 21.5124 24.7957 21.5124C21.3118 21.5124 18.4875 18.6881 18.4875 15.2042C18.4875 14.2774 18.687 13.3989 19.0447 12.6079Z" fill="#FAFAFF"/>
</g>
</svg>
