<svg width="91" height="14" viewBox="0 0 91 14" fill="none" xmlns="http://www.w3.org/2000/svg">
<path fill-rule="evenodd" clip-rule="evenodd" d="M7.21858 6.99037H8.89466C8.83117 6.39981 8.6788 5.8895 8.43755 5.45942C8.19629 5.02934 7.88838 4.67309 7.5138 4.39065C7.13922 4.10821 6.7075 3.89959 6.21865 3.76479C5.72979 3.62999 5.20601 3.56259 4.64732 3.56259C3.87276 3.56259 3.19345 3.70059 2.60935 3.97662C2.02526 4.25264 1.53958 4.63136 1.15231 5.11279C0.765028 5.59423 0.476161 6.1591 0.285696 6.80743C0.095231 7.45576 0 8.15222 0 8.89684C0 9.64145 0.0984053 10.3251 0.295219 10.9477C0.492033 11.5704 0.784074 12.1064 1.17135 12.5557C1.55863 13.005 2.04113 13.3517 2.61888 13.5956C3.19662 13.8395 3.86006 13.9615 4.60923 13.9615C5.86629 13.9615 6.85987 13.6277 7.58998 12.9601C8.3201 12.2925 8.77403 11.3425 8.9518 10.11H7.29477C7.19318 10.8803 6.91701 11.4773 6.46625 11.901C6.01548 12.3246 5.39013 12.5365 4.59018 12.5365C4.08227 12.5365 3.64421 12.4337 3.27598 12.2283C2.90775 12.0229 2.60936 11.7501 2.3808 11.4099C2.15224 11.0697 1.984 10.6813 1.87607 10.2448C1.76814 9.80834 1.71417 9.35901 1.71417 8.89684C1.71417 8.39615 1.76496 7.91151 1.86655 7.44292C1.96813 6.97432 2.13637 6.5603 2.37127 6.20083C2.60618 5.84136 2.92044 5.5525 3.31407 5.33425C3.7077 5.116 4.19655 5.00688 4.78064 5.00688C5.46632 5.00688 6.01231 5.18019 6.41863 5.52682C6.82496 5.87345 7.0916 6.3613 7.21858 6.99037ZM11.6445 8.78129C11.6445 8.1779 11.7238 7.64191 11.8826 7.17332C12.0413 6.70472 12.2603 6.30995 12.5397 5.989C12.819 5.66804 13.146 5.42412 13.5206 5.25722C13.8951 5.09032 14.2919 5.00688 14.711 5.00688C15.13 5.00688 15.5268 5.09032 15.9014 5.25722C16.2759 5.42412 16.6029 5.66804 16.8822 5.989C17.1616 6.30995 17.3806 6.70472 17.5393 7.17332C17.6981 7.64191 17.7774 8.1779 17.7774 8.78129C17.7774 9.38469 17.6981 9.92068 17.5393 10.3893C17.3806 10.8579 17.1616 11.2494 16.8822 11.564C16.6029 11.8785 16.2759 12.1192 15.9014 12.2861C15.5268 12.453 15.13 12.5365 14.711 12.5365C14.2919 12.5365 13.8951 12.453 13.5206 12.2861C13.146 12.1192 12.819 11.8785 12.5397 11.564C12.2603 11.2494 12.0413 10.8579 11.8826 10.3893C11.7238 9.92068 11.6445 9.38469 11.6445 8.78129ZM9.93031 8.78129C9.93031 9.51307 10.0319 10.1935 10.2351 10.8226C10.4382 11.4516 10.743 12.0005 11.1493 12.4691C11.5556 12.9376 12.0572 13.3035 12.6539 13.5667C13.2507 13.8299 13.9364 13.9615 14.711 13.9615C15.4982 13.9615 16.187 13.8299 16.7775 13.5667C17.3679 13.3035 17.8663 12.9376 18.2726 12.4691C18.679 12.0005 18.9837 11.4516 19.1869 10.8226C19.39 10.1935 19.4916 9.51307 19.4916 8.78129C19.4916 8.04951 19.39 7.36589 19.1869 6.7304C18.9837 6.09491 18.679 5.54287 18.2726 5.07428C17.8663 4.60568 17.3679 4.23659 16.7775 3.96699C16.187 3.69739 15.4982 3.56259 14.711 3.56259C13.9364 3.56259 13.2507 3.69739 12.6539 3.96699C12.0572 4.23659 11.5556 4.60568 11.1493 5.07428C10.743 5.54287 10.4382 6.09491 10.2351 6.7304C10.0319 7.36589 9.93031 8.04951 9.93031 8.78129ZM21.0986 3.79367V13.7497H22.7176V7.54883C22.7176 7.35626 22.7652 7.11555 22.8604 6.82669C22.9557 6.53783 23.108 6.2586 23.3175 5.989C23.5271 5.71939 23.8 5.48831 24.1365 5.29574C24.473 5.10316 24.8762 5.00688 25.346 5.00688C25.7142 5.00688 26.0158 5.06144 26.2507 5.17056C26.4856 5.27969 26.6729 5.43374 26.8125 5.63274C26.9522 5.83173 27.0506 6.06602 27.1078 6.33563C27.1649 6.60523 27.1935 6.9005 27.1935 7.22146V13.7497H28.8124V7.54883C28.8124 6.77854 29.041 6.16231 29.4981 5.70014C29.9552 5.23796 30.5837 5.00688 31.3837 5.00688C31.7773 5.00688 32.0979 5.06465 32.3455 5.18019C32.5931 5.29574 32.7868 5.453 32.9264 5.65199C33.0661 5.85099 33.1613 6.08528 33.2121 6.35488C33.2629 6.62449 33.2883 6.91334 33.2883 7.22146V13.7497H34.9073V6.45117C34.9073 5.93764 34.8279 5.49794 34.6692 5.13205C34.5105 4.76616 34.2883 4.46768 34.0026 4.23659C33.7169 4.0055 33.374 3.8354 32.9741 3.72627C32.5741 3.61715 32.1265 3.56259 31.6313 3.56259C30.9837 3.56259 30.3901 3.71022 29.8504 4.0055C29.3108 4.30078 28.8759 4.71802 28.5458 5.25722C28.3426 4.64099 27.9934 4.20449 27.4982 3.94773C27.003 3.69097 26.4507 3.56259 25.8412 3.56259C24.4571 3.56259 23.3969 4.12746 22.6604 5.25722H22.6223V3.79367H21.0986ZM43.8853 7.81843H38.2285C38.2539 7.43329 38.3364 7.07061 38.4761 6.7304C38.6158 6.39019 38.8062 6.0917 39.0475 5.83494C39.2887 5.57817 39.5776 5.37598 39.9141 5.22834C40.2506 5.0807 40.6283 5.00688 41.0473 5.00688C41.4537 5.00688 41.8251 5.0807 42.1616 5.22834C42.498 5.37598 42.7901 5.57496 43.0377 5.82531C43.2853 6.07565 43.4821 6.37414 43.6281 6.72077C43.7742 7.0674 43.8599 7.43329 43.8853 7.81843ZM45.4471 10.5915H43.8472C43.7075 11.2462 43.4186 11.7341 42.9805 12.055C42.5425 12.376 41.9806 12.5365 41.2949 12.5365C40.7616 12.5365 40.2982 12.4466 39.9046 12.2669C39.5109 12.0871 39.1871 11.8464 38.9332 11.5447C38.6792 11.243 38.4951 10.8964 38.3808 10.5048C38.2666 10.1132 38.2158 9.69922 38.2285 9.26272H45.5994C45.6248 8.65933 45.5709 8.02385 45.4375 7.35626C45.3042 6.68867 45.063 6.07245 44.7138 5.50757C44.3646 4.94268 43.9011 4.47731 43.3234 4.11142C42.7456 3.74553 42.0187 3.56259 41.1426 3.56259C40.4696 3.56259 39.8506 3.69097 39.2856 3.94773C38.7205 4.20449 38.2317 4.56396 37.819 5.02613C37.4063 5.48831 37.0857 6.03393 36.8571 6.663C36.6286 7.29207 36.5143 7.98532 36.5143 8.74278C36.5397 9.50023 36.6508 10.1999 36.8476 10.8418C37.0444 11.4837 37.3396 12.0358 37.7333 12.4979C38.1269 12.9601 38.6126 13.3196 39.1903 13.5763C39.7681 13.8331 40.4506 13.9615 41.2378 13.9615C42.3552 13.9615 43.2821 13.679 44.0186 13.1142C44.755 12.5493 45.2312 11.7084 45.4471 10.5915ZM49.2254 3.79367V0.808803H47.6064V3.79367H45.9304V5.23796H47.6064V11.5736C47.6064 12.0358 47.6509 12.4081 47.7398 12.6905C47.8287 12.9729 47.9651 13.1912 48.1493 13.3453C48.3334 13.4993 48.5746 13.6052 48.873 13.663C49.1714 13.7208 49.5301 13.7497 49.9491 13.7497H51.1872V12.3054H50.4443C50.1904 12.3054 49.9841 12.2957 49.8253 12.2765C49.6666 12.2572 49.5428 12.2155 49.4539 12.1513C49.3651 12.0871 49.3047 11.9973 49.273 11.8817C49.2413 11.7662 49.2254 11.6121 49.2254 11.4195V5.23796H51.1872V3.79367H49.2254ZM59.1938 7.29849H61.8412C61.8031 6.65658 61.6508 6.10133 61.3841 5.63274C61.1175 5.16414 60.7715 4.77258 60.3461 4.45805C59.9207 4.14351 59.4382 3.90922 58.8986 3.75516C58.3589 3.6011 57.7971 3.52407 57.213 3.52407C56.413 3.52407 55.702 3.65887 55.0798 3.92847C54.4576 4.19808 53.9306 4.57359 53.4989 5.05502C53.0672 5.53645 52.7402 6.10775 52.518 6.76891C52.2958 7.43008 52.1847 8.1458 52.1847 8.91609C52.1847 9.66071 52.3053 10.3443 52.5466 10.967C52.7879 11.5896 53.1243 12.1256 53.5561 12.575C53.9878 13.0243 54.5115 13.3741 55.1274 13.6245C55.7432 13.8748 56.4194 14 57.1558 14C58.4637 14 59.5366 13.6534 60.3747 12.9601C61.2127 12.2668 61.7206 11.2591 61.8984 9.93673H59.289C59.2001 10.553 58.9811 11.044 58.6319 11.4099C58.2827 11.7758 57.7844 11.9587 57.1368 11.9587C56.7178 11.9587 56.3622 11.8624 56.0702 11.6699C55.7781 11.4773 55.5464 11.2302 55.375 10.9285C55.2036 10.6268 55.0798 10.2898 55.0036 9.91747C54.9274 9.54516 54.8893 9.17928 54.8893 8.81981C54.8893 8.4475 54.9274 8.07199 55.0036 7.69326C55.0798 7.31453 55.2099 6.96791 55.394 6.65337C55.5781 6.33883 55.8162 6.08207 56.1083 5.88308C56.4003 5.68409 56.7622 5.58459 57.1939 5.58459C58.3494 5.58459 59.016 6.15589 59.1938 7.29849ZM63.1245 0V13.7497H65.8291V8.53095C65.8291 7.51673 65.9941 6.78817 66.3243 6.34525C66.6544 5.90234 67.1877 5.68088 67.9242 5.68088C68.5718 5.68088 69.0225 5.88308 69.2765 6.28748C69.5304 6.69189 69.6574 7.3049 69.6574 8.12655V13.7497H72.362V7.62586C72.362 7.00963 72.308 6.44796 72.2001 5.94085C72.0922 5.43374 71.9049 5.00367 71.6382 4.65062C71.3716 4.29757 71.0065 4.02155 70.5431 3.82256C70.0796 3.62357 69.486 3.52407 68.7622 3.52407C68.2543 3.52407 67.7337 3.65566 67.2004 3.91884C66.6671 4.18203 66.229 4.60247 65.8862 5.18019H65.8291V0H63.1245ZM74.0071 6.85557C74.0452 6.21366 74.2039 5.68088 74.4833 5.25722C74.7626 4.83356 75.1181 4.49335 75.5499 4.23659C75.9816 3.97982 76.4673 3.79688 77.0069 3.68776C77.5466 3.57863 78.0894 3.52407 78.6354 3.52407C79.1306 3.52407 79.6321 3.55938 80.1401 3.62999C80.648 3.7006 81.1114 3.83861 81.5304 4.04402C81.9495 4.24943 82.2923 4.53507 82.5589 4.90096C82.8256 5.26685 82.9589 5.75149 82.9589 6.35488V11.5351C82.9589 11.9844 82.9843 12.4145 83.0351 12.8253C83.0859 13.2361 83.1748 13.5442 83.3018 13.7497H80.5591C80.5083 13.5956 80.467 13.4383 80.4353 13.2779C80.4035 13.1174 80.3813 12.9537 80.3686 12.7868C79.9369 13.2361 79.429 13.5507 78.8449 13.7304C78.2608 13.9101 77.664 14 77.0545 14C76.5847 14 76.1467 13.9422 75.7403 13.8267C75.334 13.7111 74.9785 13.5314 74.6737 13.2875C74.369 13.0436 74.1309 12.7354 73.9595 12.3631C73.7881 11.9908 73.7024 11.5479 73.7024 11.0344C73.7024 10.4695 73.8008 10.0041 73.9976 9.63824C74.1944 9.27235 74.4483 8.98028 74.7594 8.76204C75.0705 8.54379 75.4261 8.3801 75.826 8.27098C76.226 8.16185 76.6292 8.07519 77.0355 8.011C77.4418 7.94681 77.8418 7.89546 78.2354 7.85695C78.629 7.81843 78.9782 7.76066 79.283 7.68363C79.5877 7.6066 79.829 7.49427 80.0067 7.34663C80.1845 7.19899 80.267 6.98395 80.2543 6.70151C80.2543 6.40623 80.2067 6.17194 80.1115 5.99862C80.0162 5.82531 79.8893 5.69051 79.7306 5.59422C79.5718 5.49794 79.3877 5.43375 79.1782 5.40165C78.9687 5.36956 78.7433 5.35351 78.5021 5.35351C77.9688 5.35351 77.5497 5.46905 77.245 5.70014C76.9403 5.93123 76.7625 6.31637 76.7117 6.85557H74.0071ZM80.2543 8.87758C80.14 8.98029 79.9972 9.06052 79.8258 9.11829C79.6544 9.17607 79.4703 9.22421 79.2734 9.26272C79.0766 9.30124 78.8703 9.33333 78.6544 9.35901C78.4386 9.38469 78.2227 9.41678 78.0069 9.4553C77.8037 9.49381 77.6037 9.54516 77.4069 9.60935C77.2101 9.67354 77.0387 9.7602 76.8926 9.86933C76.7466 9.97845 76.6292 10.1165 76.5403 10.2834C76.4514 10.4503 76.407 10.6621 76.407 10.9188C76.407 11.1628 76.4514 11.3682 76.5403 11.5351C76.6292 11.702 76.7498 11.8336 76.9022 11.9298C77.0545 12.0261 77.2323 12.0935 77.4355 12.132C77.6386 12.1706 77.8481 12.1898 78.064 12.1898C78.5973 12.1898 79.01 12.1 79.302 11.9202C79.5941 11.7405 79.8099 11.5254 79.9496 11.2751C80.0893 11.0248 80.175 10.7712 80.2067 10.5144C80.2385 10.2577 80.2543 10.0523 80.2543 9.89821V8.87758ZM88.1848 3.79367V0.808803H85.4802V3.79367H83.8422V5.62311H85.4802V11.4966C85.4802 11.9973 85.5627 12.4016 85.7278 12.7098C85.8929 13.0179 86.1182 13.2554 86.4039 13.4223C86.6896 13.5892 87.0198 13.7015 87.3943 13.7593C87.7689 13.8171 88.1657 13.8459 88.5847 13.8459C88.8514 13.8459 89.1244 13.8395 89.4037 13.8267C89.6831 13.8138 89.937 13.7882 90.1656 13.7497V11.6314C90.0386 11.657 89.9053 11.6763 89.7656 11.6891C89.6259 11.702 89.4799 11.7084 89.3276 11.7084C88.8704 11.7084 88.5657 11.6314 88.4133 11.4773C88.261 11.3232 88.1848 11.0151 88.1848 10.553V5.62311H90.1656V3.79367H88.1848Z" fill="#FAFAFF"/>
</svg>
